<svg fill="#000000" xmlns="http://www.w3.org/2000/svg"  viewBox="0 0 64 64" width="64px" height="64px"><path d="M 17.984375 2.9863281 A 1.0001 1.0001 0 0 0 17.791016 3.0097656 A 1.0001 1.0001 0 0 0 17.640625 3.0546875 A 1.0001 1.0001 0 0 0 17.595703 3.0722656 A 1.0001 1.0001 0 0 0 17.507812 3.1171875 A 1.0001 1.0001 0 0 0 17.425781 3.1660156 A 1.0001 1.0001 0 0 0 17.421875 3.1699219 A 1.0001 1.0001 0 0 0 17 4.1289062 L 17 11.832031 A 1.0001 1.0001 0 0 0 17.230469 12.65625 A 1.0001 1.0001 0 0 0 17.234375 12.660156 L 19.652344 16.529297 A 1.0001 1.0001 0 0 0 20.5 17 L 23 17 C 23.554545 17 24 17.445455 24 18 L 24 22 L 24 44.5 C 24 45.3125 23.794839 45.769849 23.523438 46.101562 C 23.252035 46.433278 22.869603 46.655445 22.433594 46.800781 C 21.561576 47.091454 20.611328 47.005859 20.611328 47.005859 A 1.0001 1.0001 0 0 0 19.652344 47.470703 L 17.230469 51.345703 A 1.0001 1.0001 0 0 0 17 52.158203 L 17 59.898438 A 1.0001 1.0001 0 0 0 17.292969 60.720703 A 1.0001 1.0001 0 0 0 17.332031 60.755859 A 1.0001 1.0001 0 0 0 17.375 60.792969 A 1.0001 1.0001 0 0 0 17.451172 60.849609 A 1.0001 1.0001 0 0 0 17.466797 60.859375 A 1.0001 1.0001 0 0 0 18.357422 60.947266 C 18.738401 60.872936 20.280459 60.55136 22.697266 60.205078 C 25.197793 59.846801 28.424603 59.5 31.5 59.5 C 34.575397 59.5 37.802207 59.846801 40.302734 60.205078 C 42.717428 60.551057 44.255796 60.872533 44.638672 60.947266 A 1.0001 1.0001 0 0 0 45.199219 60.994141 A 1.0001 1.0001 0 0 0 45.212891 60.990234 A 1.0001 1.0001 0 0 0 45.291016 60.970703 A 1.0001 1.0001 0 0 0 45.308594 60.964844 A 1.0001 1.0001 0 0 0 45.324219 60.960938 A 1.0001 1.0001 0 0 0 45.349609 60.951172 A 1.0001 1.0001 0 0 0 45.417969 60.923828 A 1.0001 1.0001 0 0 0 46 59.863281 L 46 52.167969 A 1.0001 1.0001 0 0 0 45.769531 51.34375 A 1.0001 1.0001 0 0 0 45.765625 51.339844 L 43.347656 47.470703 A 1.0001 1.0001 0 0 0 42.388672 47.005859 C 42.388672 47.005859 41.438424 47.091449 40.566406 46.800781 C 40.130397 46.655445 39.747965 46.433277 39.476562 46.101562 C 39.20516 45.769849 39 45.3125 39 44.5 L 39 22 L 39 18 C 39 17.445455 39.445455 17 40 17 L 42.5 17 A 1.0001 1.0001 0 0 0 43.347656 16.529297 L 45.769531 12.654297 A 1.0001 1.0001 0 0 0 46 11.841797 L 46 4.1015625 A 1.0001 1.0001 0 0 0 45.707031 3.2792969 A 1.0001 1.0001 0 0 0 45.667969 3.2441406 A 1.0001 1.0001 0 0 0 45.625 3.2070312 A 1.0001 1.0001 0 0 0 45.550781 3.1523438 A 1.0001 1.0001 0 0 0 45.544922 3.1484375 A 1.0001 1.0001 0 0 0 45.533203 3.140625 A 1.0001 1.0001 0 0 0 44.642578 3.0527344 C 44.261599 3.1270679 42.719541 3.4486403 40.302734 3.7949219 C 37.802207 4.153199 34.575397 4.5 31.5 4.5 C 28.424603 4.5 25.197793 4.153199 22.697266 3.7949219 C 20.282572 3.4489431 18.744204 3.1274671 18.361328 3.0527344 A 1.0001 1.0001 0 0 0 17.984375 2.9863281 z M 21.519531 5.6328125 C 21.828675 5.6814128 22.018425 5.7187034 22.414062 5.7753906 C 24.973535 6.1421135 28.275397 6.5 31.5 6.5 C 34.724603 6.5 38.026465 6.1421135 40.585938 5.7753906 C 40.981575 5.7187034 41.171325 5.6814128 41.480469 5.6328125 C 39.012317 7.3295932 35.907789 8.5 31.5 8.5 C 27.092211 8.5 23.987699 7.3295911 21.519531 5.6328125 z M 19 6.2207031 C 21.959974 8.6405374 25.881603 10.5 31.5 10.5 C 37.118397 10.5 41.040029 8.6405372 44 6.2207031 L 44 11 L 42 11 C 39.25003 11 37 13.25003 37 16 L 37 18 L 37 22 L 37 44.5 C 37 45.6875 37.35734 46.667651 37.929688 47.367188 C 38.502035 48.066722 39.244603 48.469555 39.933594 48.699219 C 40.94176 49.035274 41.446843 48.938966 41.892578 48.916016 L 43.195312 51 L 40.960938 51 C 39.636544 51 38.478082 50.141932 38.085938 48.875 A 1.0001 1.0001 0 0 0 38.082031 48.861328 L 36.408203 43.691406 A 1.0001 1.0001 0 0 0 35.423828 42.986328 A 1.0001 1.0001 0 0 0 34.503906 44.308594 L 36.173828 49.464844 C 36.821682 51.557911 38.765331 53 40.960938 53 L 44 53 L 44 57.779297 C 41.040029 55.359435 37.118397 53.5 31.5 53.5 C 25.881603 53.5 21.959971 55.359463 19 57.779297 L 19 53 L 21 53 C 23.74997 53 26 50.74997 26 48 L 26 44.5 L 26 22 L 26 18.050781 L 27.541016 22.808594 A 1.0001 1.0001 0 1 0 29.443359 22.191406 L 26.900391 14.341797 A 1.0001 1.0001 0 0 0 26.890625 14.3125 C 26.17898 12.327292 24.287833 11 22.179688 11 L 19 11 L 19 6.2207031 z M 19.804688 13 L 22.179688 13 C 23.451542 13 24.579492 13.793492 25.007812 14.988281 L 25.414062 16.242188 C 24.866184 15.494657 23.988841 15 23 15 L 21.054688 15 L 19.804688 13 z M 42 13 L 43.195312 13 L 41.945312 15 L 40 15 C 39.698386 15 39.412233 15.058105 39.136719 15.142578 C 39.503225 13.900166 40.630806 13 42 13 z M 42.957031 21.009766 A 1.0001 1.0001 0 1 0 42.957031 23.009766 L 44.957031 23.009766 A 1.0001 1.0001 0 1 0 44.957031 21.009766 L 42.957031 21.009766 z M 29.751953 25.478516 A 1.0001 1.0001 0 0 0 28.833984 26.800781 L 29.646484 29.308594 A 1.0001 1.0001 0 1 0 31.548828 28.691406 L 30.736328 26.183594 A 1.0001 1.0001 0 0 0 29.751953 25.478516 z M 42.957031 26.021484 A 1.0001 1.0001 0 1 0 42.957031 28.021484 L 44.957031 28.021484 A 1.0001 1.0001 0 1 0 44.957031 26.021484 L 42.957031 26.021484 z M 42.957031 31.033203 A 1.0001 1.0001 0 1 0 42.957031 33.033203 L 44.957031 33.033203 A 1.0001 1.0001 0 1 0 44.957031 31.033203 L 42.957031 31.033203 z M 31.863281 31.992188 A 1.0001 1.0001 0 0 0 30.943359 33.314453 L 33.208984 40.308594 A 1.0001 1.0001 0 1 0 35.111328 39.693359 L 32.845703 32.697266 A 1.0001 1.0001 0 0 0 31.863281 31.992188 z M 42.957031 36.044922 A 1.0001 1.0001 0 1 0 42.957031 38.044922 L 44.957031 38.044922 A 1.0001 1.0001 0 1 0 44.957031 36.044922 L 42.957031 36.044922 z M 42.957031 41.056641 A 1.0001 1.0001 0 1 0 42.957031 43.056641 L 44.957031 43.056641 A 1.0001 1.0001 0 1 0 44.957031 41.056641 L 42.957031 41.056641 z M 23.970703 48.285156 C 23.826942 49.816367 22.572 51 21 51 L 19.804688 51 L 21.107422 48.916016 C 21.553157 48.938966 22.05824 49.035274 23.066406 48.699219 C 23.36448 48.599861 23.670695 48.459339 23.970703 48.285156 z M 31.5 55.5 C 35.907789 55.5 39.012301 56.670409 41.480469 58.367188 C 41.171325 58.318587 40.981575 58.281297 40.585938 58.224609 C 38.026465 57.857886 34.724603 57.5 31.5 57.5 C 28.275397 57.5 24.973535 57.857886 22.414062 58.224609 C 22.018425 58.281297 21.828675 58.318587 21.519531 58.367188 C 23.987683 56.670407 27.092211 55.5 31.5 55.5 z"/></svg>